<?xml version="1.0" encoding="utf-8"?>
<svg id="engines_logo" image-rendering="optimizeQuality" baseProfile="basic" version="1.1" x="0px" y="0px" width="512" height="128" xmlns="http://www.w3.org/2000/svg" xmlns:xlink="http://www.w3.org/1999/xlink">
  <g id="s1r1" overflow="visible">
    <g display="none">
      <g>
        <g id="Layer118_0_FILL">
          <path fill="#FFF" stroke="none" d="M157.9 32.05L135.55 32.05 142.85 12 55.7 12 44.15 43.75 34.9 43.75 20.4 83.55 29.65 83.55 17.6 116.75 104.7 116.75 112.4 95.6 142.4 95.6 149.05 77.35 123.6 77.35 133.65 49.85 151.45 49.85 157.9 32.05M134 18.15L128.95 32.05 90.25 32.05 83.75 49.85 103.7 49.85 93.7 77.35 69.8 77.35 63.2 95.6 105.85 95.6 100.4 110.6 26.35 110.6 38.45 77.4 29.2 77.4 39.2 49.9 48.45 49.9 48.5 49.85 60 18.15 134 18.15M199.1 49.85L205.6 32.05 166.25 32.05 159.75 49.85 199.1 49.85M199.1 49.85L182.45 95.5 217.8 95.5 234.4 49.85 199.1 49.85M288.1 32.05L248.9 32.05 242.4 49.85 281.7 49.85 288.1 32.05M298.75 55.65L294.45 67.5 310.2 67.5 314.5 55.65 298.75 55.65M274.1 70.6L265 95.6 300.2 95.6 309.35 70.6 274.1 70.6M274.1 70.6L280.6 52.85 241.3 52.85 234.85 70.6 274.1 70.6M363.8 49.85L347.2 95.5 382.5 95.5 399.15 49.85 363.8 49.85M324.5 49.85L363.8 49.85 370.3 32.05 330.95 32.05 324.5 49.85M329.75 67.5L334.05 55.65 318.35 55.65 314.05 67.5 329.75 67.5M446.65 49.85L453.05 32.05 415.9 32.05 409.45 49.85 446.65 49.85M476.6 32.05L460.85 32.05 456.55 43.9 472.25 43.9 476.6 32.05M491.85 43.9L496.15 32.05 480.45 32.05 476.1 43.9 491.85 43.9Z"/>
        </g>
      </g>
      <animate attributeName="display" fill="freeze" repeatCount="1" dur="4s" keyTimes="0;.8;1" values="none;inline;inline"/>
    </g>
    <g display="none">
      <g>
        <g id="Layer117_0_FILL">
          <path fill="#FFF" fill-opacity=".9058823529411765" stroke="none" d="M135.55 32.05L142.85 12 55.7 12 44.15 43.75 34.9 43.75 20.4 83.55 29.65 83.55 17.6 116.75 104.7 116.75 112.4 95.6 142.4 95.6 149.05 77.35 123.6 77.35 133.65 49.85 151.45 49.85 157.9 32.05 135.55 32.05M134 18.15L128.95 32.05 90.25 32.05 83.75 49.85 103.7 49.85 93.7 77.35 69.8 77.35 63.2 95.6 105.85 95.6 100.4 110.6 26.35 110.6 38.45 77.4 29.2 77.4 39.2 49.9 48.45 49.9 60 18.15 134 18.15M205.6 32.05L166.25 32.05 159.75 49.85 199.1 49.85 205.6 32.05M199.1 49.85L182.45 95.5 217.8 95.5 234.4 49.85 199.1 49.85M288.1 32.05L248.9 32.05 242.4 49.85 281.7 49.85 288.1 32.05M298.75 55.65L294.45 67.5 310.2 67.5 314.5 55.65 298.75 55.65M274.1 70.6L265 95.6 300.2 95.6 309.35 70.6 274.1 70.6M274.1 70.6L280.6 52.85 241.3 52.85 234.85 70.6 274.1 70.6M363.8 49.85L347.2 95.5 382.5 95.5 399.15 49.85 363.8 49.85M324.5 49.85L363.8 49.85 370.3 32.05 330.95 32.05 324.5 49.85M329.75 67.5L334.05 55.65 318.35 55.65 314.05 67.5 329.75 67.5M415.9 32.05L409.45 49.85 446.65 49.85 453.05 32.05 415.9 32.05M460.85 32.05L456.55 43.9 472.25 43.9 476.6 32.05 460.85 32.05M491.85 43.9L496.15 32.05 480.45 32.05 476.1 43.9 491.85 43.9Z"/>
        </g>
      </g>
      <animate attributeName="display" fill="freeze" repeatCount="1" dur="4s" keyTimes="0;.7916666666666666;.8;1" values="none;inline;none;none"/>
    </g>
    <g display="none">
      <g>
        <g id="Layer116_0_FILL">
          <path fill="#FFF" fill-opacity=".8196078431372549" stroke="none" d="M135.55 32.05L142.85 12 55.7 12 44.15 43.75 34.9 43.75 20.4 83.55 29.65 83.55 17.6 116.75 104.7 116.75 112.4 95.6 142.4 95.6 149.05 77.35 123.6 77.35 133.65 49.85 151.45 49.85 157.9 32.05 135.55 32.05M134 18.15L128.95 32.05 90.25 32.05 83.75 49.85 103.7 49.85 93.7 77.35 69.8 77.35 63.2 95.6 105.85 95.6 100.4 110.6 26.35 110.6 38.45 77.4 29.2 77.4 39.2 49.9 48.45 49.9 60 18.15 134 18.15M205.6 32.05L166.25 32.05 159.75 49.85 199.1 49.85 205.6 32.05M199.1 49.85L182.45 95.5 217.8 95.5 234.4 49.85 199.1 49.85M288.1 32.05L248.9 32.05 242.4 49.85 281.7 49.85 288.1 32.05M298.75 55.65L294.45 67.5 310.2 67.5 314.5 55.65 298.75 55.65M274.1 70.6L265 95.6 300.2 95.6 309.35 70.6 274.1 70.6M274.1 70.6L280.6 52.85 241.3 52.85 234.85 70.6 274.1 70.6M363.8 49.85L347.2 95.5 382.5 95.5 399.15 49.85 363.8 49.85M324.5 49.85L363.8 49.85 370.3 32.05 330.95 32.05 324.5 49.85M329.75 67.5L334.05 55.65 318.35 55.65 314.05 67.5 329.75 67.5M415.9 32.05L409.45 49.85 446.65 49.85 453.05 32.05 415.9 32.05M460.85 32.05L456.55 43.9 472.25 43.9 476.6 32.05 460.85 32.05M491.85 43.9L496.15 32.05 480.45 32.05 476.1 43.9 491.85 43.9Z"/>
        </g>
      </g>
      <animate attributeName="display" fill="freeze" repeatCount="1" dur="4s" keyTimes="0;.7833333333333334;.7916666666666666;1" values="none;inline;none;none"/>
    </g>
    <g display="none">
      <g>
        <g id="Layer115_0_FILL">
          <path fill="#FFF" fill-opacity=".7372549019607844" stroke="none" d="M135.55 32.05L142.85 12 55.7 12 44.15 43.75 34.9 43.75 20.4 83.55 29.65 83.55 17.6 116.75 104.7 116.75 112.4 95.6 142.4 95.6 149.05 77.35 123.6 77.35 133.65 49.85 151.45 49.85 157.9 32.05 135.55 32.05M134 18.15L128.95 32.05 90.25 32.05 83.75 49.85 103.7 49.85 93.7 77.35 69.8 77.35 63.2 95.6 105.85 95.6 100.4 110.6 26.35 110.6 38.45 77.4 29.2 77.4 39.2 49.9 48.45 49.9 60 18.15 134 18.15M205.6 32.05L166.25 32.05 159.75 49.85 199.1 49.85 205.6 32.05M199.1 49.85L182.45 95.5 217.8 95.5 234.4 49.85 199.1 49.85M288.1 32.05L248.9 32.05 242.4 49.85 281.7 49.85 288.1 32.05M298.75 55.65L294.45 67.5 310.2 67.5 314.5 55.65 298.75 55.65M274.1 70.6L265 95.6 300.2 95.6 309.35 70.6 274.1 70.6M274.1 70.6L280.6 52.85 241.3 52.85 234.85 70.6 274.1 70.6M363.8 49.85L347.2 95.5 382.5 95.5 399.15 49.85 363.8 49.85M324.5 49.85L363.8 49.85 370.3 32.05 330.95 32.05 324.5 49.85M329.75 67.5L334.05 55.65 318.35 55.65 314.05 67.5 329.75 67.5M415.9 32.05L409.45 49.85 446.65 49.85 453.05 32.05 415.9 32.05M460.85 32.05L456.55 43.9 472.25 43.9 476.6 32.05 460.85 32.05M491.85 43.9L496.15 32.05 480.45 32.05 476.1 43.9 491.85 43.9Z"/>
        </g>
      </g>
      <animate attributeName="display" fill="freeze" repeatCount="1" dur="4s" keyTimes="0;.775;.7833333333333334;1" values="none;inline;none;none"/>
    </g>
    <g display="none">
      <g>
        <g id="Layer114_0_FILL">
          <path fill="#FFF" fill-opacity=".6549019607843137" stroke="none" d="M135.55 32.05L142.85 12 55.7 12 44.15 43.75 34.9 43.75 20.4 83.55 29.65 83.55 17.6 116.75 104.7 116.75 112.4 95.6 142.4 95.6 149.05 77.35 123.6 77.35 133.65 49.85 151.45 49.85 157.9 32.05 135.55 32.05M134 18.15L128.95 32.05 90.25 32.05 83.75 49.85 103.7 49.85 93.7 77.35 69.8 77.35 63.2 95.6 105.85 95.6 100.4 110.6 26.35 110.6 38.45 77.4 29.2 77.4 39.2 49.9 48.45 49.9 60 18.15 134 18.15M205.6 32.05L166.25 32.05 159.75 49.85 199.1 49.85 205.6 32.05M199.1 49.85L182.45 95.5 217.8 95.5 234.4 49.85 199.1 49.85M288.1 32.05L248.9 32.05 242.4 49.85 281.7 49.85 288.1 32.05M298.75 55.65L294.45 67.5 310.2 67.5 314.5 55.65 298.75 55.65M274.1 70.6L265 95.6 300.2 95.6 309.35 70.6 274.1 70.6M274.1 70.6L280.6 52.85 241.3 52.85 234.85 70.6 274.1 70.6M363.8 49.85L347.2 95.5 382.5 95.5 399.15 49.85 363.8 49.85M324.5 49.85L363.8 49.85 370.3 32.05 330.95 32.05 324.5 49.85M329.75 67.5L334.05 55.65 318.35 55.65 314.05 67.5 329.75 67.5M415.9 32.05L409.45 49.85 446.65 49.85 453.05 32.05 415.9 32.05M460.85 32.05L456.55 43.9 472.25 43.9 476.6 32.05 460.85 32.05M491.85 43.9L496.15 32.05 480.45 32.05 476.1 43.9 491.85 43.9Z"/>
        </g>
      </g>
      <animate attributeName="display" fill="freeze" repeatCount="1" dur="4s" keyTimes="0;.7666666666666667;.775;1" values="none;inline;none;none"/>
    </g>
    <g display="none">
      <g>
        <g id="Layer113_0_FILL">
          <path fill="#FFF" fill-opacity=".5803921568627451" stroke="none" d="M135.55 32.05L142.85 12 55.7 12 44.15 43.75 34.9 43.75 20.4 83.55 29.65 83.55 17.6 116.75 104.7 116.75 112.4 95.6 142.4 95.6 149.05 77.35 123.6 77.35 133.65 49.85 151.45 49.85 157.9 32.05 135.55 32.05M134 18.15L128.95 32.05 90.25 32.05 83.75 49.85 103.7 49.85 93.7 77.35 69.8 77.35 63.2 95.6 105.85 95.6 100.4 110.6 26.35 110.6 38.45 77.4 29.2 77.4 39.2 49.9 48.45 49.9 60 18.15 134 18.15M205.6 32.05L166.25 32.05 159.75 49.85 199.1 49.85 205.6 32.05M199.1 49.85L182.45 95.5 217.8 95.5 234.4 49.85 199.1 49.85M288.1 32.05L248.9 32.05 242.4 49.85 281.7 49.85 288.1 32.05M298.75 55.65L294.45 67.5 310.2 67.5 314.5 55.65 298.75 55.65M274.1 70.6L265 95.6 300.2 95.6 309.35 70.6 274.1 70.6M274.1 70.6L280.6 52.85 241.3 52.85 234.85 70.6 274.1 70.6M363.8 49.85L347.2 95.5 382.5 95.5 399.15 49.85 363.8 49.85M324.5 49.85L363.8 49.85 370.3 32.05 330.95 32.05 324.5 49.85M329.75 67.5L334.05 55.65 318.35 55.65 314.05 67.5 329.75 67.5M415.9 32.05L409.45 49.85 446.65 49.85 453.05 32.05 415.9 32.05M460.85 32.05L456.55 43.9 472.25 43.9 476.6 32.05 460.85 32.05M491.85 43.9L496.15 32.05 480.45 32.05 476.1 43.9 491.85 43.9Z"/>
        </g>
      </g>
      <animate attributeName="display" fill="freeze" repeatCount="1" dur="4s" keyTimes="0;.7583333333333333;.7666666666666667;1" values="none;inline;none;none"/>
    </g>
    <g display="none">
      <g>
        <g id="Layer112_0_FILL">
          <path fill="#FFF" fill-opacity=".5137254901960784" stroke="none" d="M135.55 32.05L142.85 12 55.7 12 44.15 43.75 34.9 43.75 20.4 83.55 29.65 83.55 17.6 116.75 104.7 116.75 112.4 95.6 142.4 95.6 149.05 77.35 123.6 77.35 133.65 49.85 151.45 49.85 157.9 32.05 135.55 32.05M134 18.15L128.95 32.05 90.25 32.05 83.75 49.85 103.7 49.85 93.7 77.35 69.8 77.35 63.2 95.6 105.85 95.6 100.4 110.6 26.35 110.6 38.45 77.4 29.2 77.4 39.2 49.9 48.45 49.9 60 18.15 134 18.15M205.6 32.05L166.25 32.05 159.75 49.85 199.1 49.85 205.6 32.05M199.1 49.85L182.45 95.5 217.8 95.5 234.4 49.85 199.1 49.85M288.1 32.05L248.9 32.05 242.4 49.85 281.7 49.85 288.1 32.05M298.75 55.65L294.45 67.5 310.2 67.5 314.5 55.65 298.75 55.65M274.1 70.6L265 95.6 300.2 95.6 309.35 70.6 274.1 70.6M274.1 70.6L280.6 52.85 241.3 52.85 234.85 70.6 274.1 70.6M363.8 49.85L347.2 95.5 382.5 95.5 399.15 49.85 363.8 49.85M324.5 49.85L363.8 49.85 370.3 32.05 330.95 32.05 324.5 49.85M329.75 67.5L334.05 55.65 318.35 55.65 314.05 67.5 329.75 67.5M415.9 32.05L409.45 49.85 446.65 49.85 453.05 32.05 415.9 32.05M460.85 32.05L456.55 43.9 472.25 43.9 476.6 32.05 460.85 32.05M491.85 43.9L496.15 32.05 480.45 32.05 476.1 43.9 491.85 43.9Z"/>
        </g>
      </g>
      <animate attributeName="display" fill="freeze" repeatCount="1" dur="4s" keyTimes="0;.7500000000000001;.7583333333333333;1" values="none;inline;none;none"/>
    </g>
    <g display="none">
      <g>
        <g id="Layer111_0_FILL">
          <path fill="#FFF" fill-opacity=".4470588235294118" stroke="none" d="M135.55 32.05L142.85 12 55.7 12 44.15 43.75 34.9 43.75 20.4 83.55 29.65 83.55 17.6 116.75 104.7 116.75 112.4 95.6 142.4 95.6 149.05 77.35 123.6 77.35 133.65 49.85 151.45 49.85 157.9 32.05 135.55 32.05M134 18.15L128.95 32.05 90.25 32.05 83.75 49.85 103.7 49.85 93.7 77.35 69.8 77.35 63.2 95.6 105.85 95.6 100.4 110.6 26.35 110.6 38.45 77.4 29.2 77.4 39.2 49.9 48.45 49.9 60 18.15 134 18.15M205.6 32.05L166.25 32.05 159.75 49.85 199.1 49.85 205.6 32.05M199.1 49.85L182.45 95.5 217.8 95.5 234.4 49.85 199.1 49.85M288.1 32.05L248.9 32.05 242.4 49.85 281.7 49.85 288.1 32.05M298.75 55.65L294.45 67.5 310.2 67.5 314.5 55.65 298.75 55.65M274.1 70.6L265 95.6 300.2 95.6 309.35 70.6 274.1 70.6M274.1 70.6L280.6 52.85 241.3 52.85 234.85 70.6 274.1 70.6M363.8 49.85L347.2 95.5 382.5 95.5 399.15 49.85 363.8 49.85M324.5 49.85L363.8 49.85 370.3 32.05 330.95 32.05 324.5 49.85M329.75 67.5L334.05 55.65 318.35 55.65 314.05 67.5 329.75 67.5M415.9 32.05L409.45 49.85 446.65 49.85 453.05 32.05 415.9 32.05M460.85 32.05L456.55 43.9 472.25 43.9 476.6 32.05 460.85 32.05M491.85 43.9L496.15 32.05 480.45 32.05 476.1 43.9 491.85 43.9Z"/>
        </g>
      </g>
      <animate attributeName="display" fill="freeze" repeatCount="1" dur="4s" keyTimes="0;.7416666666666667;.7500000000000001;1" values="none;inline;none;none"/>
    </g>
    <g display="none">
      <g>
        <g id="Layer110_0_FILL">
          <path fill="#FFF" fill-opacity=".3843137254901961" stroke="none" d="M135.55 32.05L142.85 12 55.7 12 44.15 43.75 34.9 43.75 20.4 83.55 29.65 83.55 17.6 116.75 104.7 116.75 112.4 95.6 142.4 95.6 149.05 77.35 123.6 77.35 133.65 49.85 151.45 49.85 157.9 32.05 135.55 32.05M134 18.15L128.95 32.05 90.25 32.05 83.75 49.85 103.7 49.85 93.7 77.35 69.8 77.35 63.2 95.6 105.85 95.6 100.4 110.6 26.35 110.6 38.45 77.4 29.2 77.4 39.2 49.9 48.45 49.9 60 18.15 134 18.15M205.6 32.05L166.25 32.05 159.75 49.85 199.1 49.85 205.6 32.05M199.1 49.85L182.45 95.5 217.8 95.5 234.4 49.85 199.1 49.85M288.1 32.05L248.9 32.05 242.4 49.85 281.7 49.85 288.1 32.05M298.75 55.65L294.45 67.5 310.2 67.5 314.5 55.65 298.75 55.65M274.1 70.6L265 95.6 300.2 95.6 309.35 70.6 274.1 70.6M274.1 70.6L280.6 52.85 241.3 52.85 234.85 70.6 274.1 70.6M363.8 49.85L347.2 95.5 382.5 95.5 399.15 49.85 363.8 49.85M324.5 49.85L363.8 49.85 370.3 32.05 330.95 32.05 324.5 49.85M329.75 67.5L334.05 55.65 318.35 55.65 314.05 67.5 329.75 67.5M415.9 32.05L409.45 49.85 446.65 49.85 453.05 32.05 415.9 32.05M460.85 32.05L456.55 43.9 472.25 43.9 476.6 32.05 460.85 32.05M491.85 43.9L496.15 32.05 480.45 32.05 476.1 43.9 491.85 43.9Z"/>
        </g>
      </g>
      <animate attributeName="display" fill="freeze" repeatCount="1" dur="4s" keyTimes="0;.7333333333333333;.7416666666666667;1" values="none;inline;none;none"/>
    </g>
    <g display="none">
      <g>
        <g id="Layer109_0_FILL">
          <path fill="#FFF" fill-opacity=".32941176470588235" stroke="none" d="M135.55 32.05L142.85 12 55.7 12 44.15 43.75 34.9 43.75 20.4 83.55 29.65 83.55 17.6 116.75 104.7 116.75 112.4 95.6 142.4 95.6 149.05 77.35 123.6 77.35 133.65 49.85 151.45 49.85 157.9 32.05 135.55 32.05M134 18.15L128.95 32.05 90.25 32.05 83.75 49.85 103.7 49.85 93.7 77.35 69.8 77.35 63.2 95.6 105.85 95.6 100.4 110.6 26.35 110.6 38.45 77.4 29.2 77.4 39.2 49.9 48.45 49.9 60 18.15 134 18.15M205.6 32.05L166.25 32.05 159.75 49.85 199.1 49.85 205.6 32.05M199.1 49.85L182.45 95.5 217.8 95.5 234.4 49.85 199.1 49.85M288.1 32.05L248.9 32.05 242.4 49.85 281.7 49.85 288.1 32.05M298.75 55.65L294.45 67.5 310.2 67.5 314.5 55.65 298.75 55.65M274.1 70.6L265 95.6 300.2 95.6 309.35 70.6 274.1 70.6M274.1 70.6L280.6 52.85 241.3 52.85 234.85 70.6 274.1 70.6M363.8 49.85L347.2 95.5 382.5 95.5 399.15 49.85 363.8 49.85M324.5 49.85L363.8 49.85 370.3 32.05 330.95 32.05 324.5 49.85M329.75 67.5L334.05 55.65 318.35 55.65 314.05 67.5 329.75 67.5M415.9 32.05L409.45 49.85 446.65 49.85 453.05 32.05 415.9 32.05M460.85 32.05L456.55 43.9 472.25 43.9 476.6 32.05 460.85 32.05M491.85 43.9L496.15 32.05 480.45 32.05 476.1 43.9 491.85 43.9Z"/>
        </g>
      </g>
      <animate attributeName="display" fill="freeze" repeatCount="1" dur="4s" keyTimes="0;.725;.7333333333333333;1" values="none;inline;none;none"/>
    </g>
    <g display="none">
      <g>
        <g id="Layer108_0_FILL">
          <path fill="#FFF" fill-opacity=".2784313725490196" stroke="none" d="M135.55 32.05L142.85 12 55.7 12 44.15 43.75 34.9 43.75 20.4 83.55 29.65 83.55 17.6 116.75 104.7 116.75 112.4 95.6 142.4 95.6 149.05 77.35 123.6 77.35 133.65 49.85 151.45 49.85 157.9 32.05 135.55 32.05M134 18.15L128.95 32.05 90.25 32.05 83.75 49.85 103.7 49.85 93.7 77.35 69.8 77.35 63.2 95.6 105.85 95.6 100.4 110.6 26.35 110.6 38.45 77.4 29.2 77.4 39.2 49.9 48.45 49.9 60 18.15 134 18.15M205.6 32.05L166.25 32.05 159.75 49.85 199.1 49.85 205.6 32.05M199.1 49.85L182.45 95.5 217.8 95.5 234.4 49.85 199.1 49.85M288.1 32.05L248.9 32.05 242.4 49.85 281.7 49.85 288.1 32.05M298.75 55.65L294.45 67.5 310.2 67.5 314.5 55.65 298.75 55.65M274.1 70.6L265 95.6 300.2 95.6 309.35 70.6 274.1 70.6M274.1 70.6L280.6 52.85 241.3 52.85 234.85 70.6 274.1 70.6M363.8 49.85L347.2 95.5 382.5 95.5 399.15 49.85 363.8 49.85M324.5 49.85L363.8 49.85 370.3 32.05 330.95 32.05 324.5 49.85M329.75 67.5L334.05 55.65 318.35 55.65 314.05 67.5 329.75 67.5M415.9 32.05L409.45 49.85 446.65 49.85 453.05 32.05 415.9 32.05M460.85 32.05L456.55 43.9 472.25 43.9 476.6 32.05 460.85 32.05M491.85 43.9L496.15 32.05 480.45 32.05 476.1 43.9 491.85 43.9Z"/>
        </g>
      </g>
      <animate attributeName="display" fill="freeze" repeatCount="1" dur="4s" keyTimes="0;.7166666666666666;.725;1" values="none;inline;none;none"/>
    </g>
    <g display="none">
      <g>
        <g id="Layer107_0_FILL">
          <path fill="#FFF" fill-opacity=".23137254901960785" stroke="none" d="M135.55 32.05L142.85 12 55.7 12 44.15 43.75 34.9 43.75 20.4 83.55 29.65 83.55 17.6 116.75 104.7 116.75 112.4 95.6 142.4 95.6 149.05 77.35 123.6 77.35 133.65 49.85 151.45 49.85 157.9 32.05 135.55 32.05M134 18.15L128.95 32.05 90.25 32.05 83.75 49.85 103.7 49.85 93.7 77.35 69.8 77.35 63.2 95.6 105.85 95.6 100.4 110.6 26.35 110.6 38.45 77.4 29.2 77.4 39.2 49.9 48.45 49.9 60 18.15 134 18.15M205.6 32.05L166.25 32.05 159.75 49.85 199.1 49.85 205.6 32.05M199.1 49.85L182.45 95.5 217.8 95.5 234.4 49.85 199.1 49.85M288.1 32.05L248.9 32.05 242.4 49.85 281.7 49.85 288.1 32.05M298.75 55.65L294.45 67.5 310.2 67.5 314.5 55.65 298.75 55.65M274.1 70.6L265 95.6 300.2 95.6 309.35 70.6 274.1 70.6M274.1 70.6L280.6 52.85 241.3 52.85 234.85 70.6 274.1 70.6M363.8 49.85L347.2 95.5 382.5 95.5 399.15 49.85 363.8 49.85M324.5 49.85L363.8 49.85 370.3 32.05 330.95 32.05 324.5 49.85M329.75 67.5L334.05 55.65 318.35 55.65 314.05 67.5 329.75 67.5M415.9 32.05L409.45 49.85 446.65 49.85 453.05 32.05 415.9 32.05M460.85 32.05L456.55 43.9 472.25 43.9 476.6 32.05 460.85 32.05M491.85 43.9L496.15 32.05 480.45 32.05 476.1 43.9 491.85 43.9Z"/>
        </g>
      </g>
      <animate attributeName="display" fill="freeze" repeatCount="1" dur="4s" keyTimes="0;.7083333333333334;.7166666666666666;1" values="none;inline;none;none"/>
    </g>
    <g display="none">
      <g>
        <g id="Layer106_0_FILL">
          <path fill="#FFF" fill-opacity=".18823529411764706" stroke="none" d="M135.55 32.05L142.85 12 55.7 12 44.15 43.75 34.9 43.75 20.4 83.55 29.65 83.55 17.6 116.75 104.7 116.75 112.4 95.6 142.4 95.6 149.05 77.35 123.6 77.35 133.65 49.85 151.45 49.85 157.9 32.05 135.55 32.05M134 18.15L128.95 32.05 90.25 32.05 83.75 49.85 103.7 49.85 93.7 77.35 69.8 77.35 63.2 95.6 105.85 95.6 100.4 110.6 26.35 110.6 38.45 77.4 29.2 77.4 39.2 49.9 48.45 49.9 60 18.15 134 18.15M205.6 32.05L166.25 32.05 159.75 49.85 199.1 49.85 205.6 32.05M199.1 49.85L182.45 95.5 217.8 95.5 234.4 49.85 199.1 49.85M288.1 32.05L248.9 32.05 242.4 49.85 281.7 49.85 288.1 32.05M298.75 55.65L294.45 67.5 310.2 67.5 314.5 55.65 298.75 55.65M274.1 70.6L265 95.6 300.2 95.6 309.35 70.6 274.1 70.6M274.1 70.6L280.6 52.85 241.3 52.85 234.85 70.6 274.1 70.6M363.8 49.85L347.2 95.5 382.5 95.5 399.15 49.85 363.8 49.85M324.5 49.85L363.8 49.85 370.3 32.05 330.95 32.05 324.5 49.85M329.75 67.5L334.05 55.65 318.35 55.65 314.05 67.5 329.75 67.5M415.9 32.05L409.45 49.85 446.65 49.85 453.05 32.05 415.9 32.05M460.85 32.05L456.55 43.9 472.25 43.9 476.6 32.05 460.85 32.05M491.85 43.9L496.15 32.05 480.45 32.05 476.1 43.9 491.85 43.9Z"/>
        </g>
      </g>
      <animate attributeName="display" fill="freeze" repeatCount="1" dur="4s" keyTimes="0;.7;.7083333333333334;1" values="none;inline;none;none"/>
    </g>
    <g display="none">
      <g>
        <g id="Layer105_0_FILL">
          <path fill="#FFF" fill-opacity=".14901960784313725" stroke="none" d="M135.55 32.05L142.85 12 55.7 12 44.15 43.75 34.9 43.75 20.4 83.55 29.65 83.55 17.6 116.75 104.7 116.75 112.4 95.6 142.4 95.6 149.05 77.35 123.6 77.35 133.65 49.85 151.45 49.85 157.9 32.05 135.55 32.05M134 18.15L128.95 32.05 90.25 32.05 83.75 49.85 103.7 49.85 93.7 77.35 69.8 77.35 63.2 95.6 105.85 95.6 100.4 110.6 26.35 110.6 38.45 77.4 29.2 77.4 39.2 49.9 48.45 49.9 60 18.15 134 18.15M205.6 32.05L166.25 32.05 159.75 49.85 199.1 49.85 205.6 32.05M199.1 49.85L182.45 95.5 217.8 95.5 234.4 49.85 199.1 49.85M288.1 32.05L248.9 32.05 242.4 49.85 281.7 49.85 288.1 32.05M298.75 55.65L294.45 67.5 310.2 67.5 314.5 55.65 298.75 55.65M274.1 70.6L265 95.6 300.2 95.6 309.35 70.6 274.1 70.6M274.1 70.6L280.6 52.85 241.3 52.85 234.85 70.6 274.1 70.6M363.8 49.85L347.2 95.5 382.5 95.5 399.15 49.85 363.8 49.85M324.5 49.85L363.8 49.85 370.3 32.05 330.95 32.05 324.5 49.85M329.75 67.5L334.05 55.65 318.35 55.65 314.05 67.5 329.75 67.5M415.9 32.05L409.45 49.85 446.65 49.85 453.05 32.05 415.9 32.05M460.85 32.05L456.55 43.9 472.25 43.9 476.6 32.05 460.85 32.05M491.85 43.9L496.15 32.05 480.45 32.05 476.1 43.9 491.85 43.9Z"/>
        </g>
      </g>
      <animate attributeName="display" fill="freeze" repeatCount="1" dur="4s" keyTimes="0;.6916666666666667;.7;1" values="none;inline;none;none"/>
    </g>
    <g display="none">
      <g>
        <g id="Layer104_0_FILL">
          <path fill="#FFF" fill-opacity=".11372549019607843" stroke="none" d="M135.55 32.05L142.85 12 55.7 12 44.15 43.75 34.9 43.75 20.4 83.55 29.65 83.55 17.6 116.75 104.7 116.75 112.4 95.6 142.4 95.6 149.05 77.35 123.6 77.35 133.65 49.85 151.45 49.85 157.9 32.05 135.55 32.05M134 18.15L128.95 32.05 90.25 32.05 83.75 49.85 103.7 49.85 93.7 77.35 69.8 77.35 63.2 95.6 105.85 95.6 100.4 110.6 26.35 110.6 38.45 77.4 29.2 77.4 39.2 49.9 48.45 49.9 60 18.15 134 18.15M205.6 32.05L166.25 32.05 159.75 49.85 199.1 49.85 205.6 32.05M199.1 49.85L182.45 95.5 217.8 95.5 234.4 49.85 199.1 49.85M288.1 32.05L248.9 32.05 242.4 49.85 281.7 49.85 288.1 32.05M298.75 55.65L294.45 67.5 310.2 67.5 314.5 55.65 298.75 55.65M274.1 70.6L265 95.6 300.2 95.6 309.35 70.6 274.1 70.6M274.1 70.6L280.6 52.85 241.3 52.85 234.85 70.6 274.1 70.6M363.8 49.85L347.2 95.5 382.5 95.5 399.15 49.85 363.8 49.85M324.5 49.85L363.8 49.85 370.3 32.05 330.95 32.05 324.5 49.85M329.75 67.5L334.05 55.65 318.35 55.65 314.05 67.5 329.75 67.5M415.9 32.05L409.45 49.85 446.65 49.85 453.05 32.05 415.9 32.05M460.85 32.05L456.55 43.9 472.25 43.9 476.6 32.05 460.85 32.05M491.85 43.9L496.15 32.05 480.45 32.05 476.1 43.9 491.85 43.9Z"/>
        </g>
      </g>
      <animate attributeName="display" fill="freeze" repeatCount="1" dur="4s" keyTimes="0;.6833333333333332;.6916666666666667;1" values="none;inline;none;none"/>
    </g>
    <g display="none">
      <g>
        <g id="Layer103_0_FILL">
          <path fill="#FFF" fill-opacity=".08627450980392157" stroke="none" d="M135.55 32.05L142.85 12 55.7 12 44.15 43.75 34.9 43.75 20.4 83.55 29.65 83.55 17.6 116.75 104.7 116.75 112.4 95.6 142.4 95.6 149.05 77.35 123.6 77.35 133.65 49.85 151.45 49.85 157.9 32.05 135.55 32.05M134 18.15L128.95 32.05 90.25 32.05 83.75 49.85 103.7 49.85 93.7 77.35 69.8 77.35 63.2 95.6 105.85 95.6 100.4 110.6 26.35 110.6 38.45 77.4 29.2 77.4 39.2 49.9 48.45 49.9 60 18.15 134 18.15M205.6 32.05L166.25 32.05 159.75 49.85 199.1 49.85 205.6 32.05M199.1 49.85L182.45 95.5 217.8 95.5 234.4 49.85 199.1 49.85M288.1 32.05L248.9 32.05 242.4 49.85 281.7 49.85 288.1 32.05M298.75 55.65L294.45 67.5 310.2 67.5 314.5 55.65 298.75 55.65M274.1 70.6L265 95.6 300.2 95.6 309.35 70.6 274.1 70.6M274.1 70.6L280.6 52.85 241.3 52.85 234.85 70.6 274.1 70.6M363.8 49.85L347.2 95.5 382.5 95.5 399.15 49.85 363.8 49.85M324.5 49.85L363.8 49.85 370.3 32.05 330.95 32.05 324.5 49.85M329.75 67.5L334.05 55.65 318.35 55.65 314.05 67.5 329.75 67.5M415.9 32.05L409.45 49.85 446.65 49.85 453.05 32.05 415.9 32.05M460.85 32.05L456.55 43.9 472.25 43.9 476.6 32.05 460.85 32.05M491.85 43.9L496.15 32.05 480.45 32.05 476.1 43.9 491.85 43.9Z"/>
        </g>
      </g>
      <animate attributeName="display" fill="freeze" repeatCount="1" dur="4s" keyTimes="0;.675;.6833333333333332;1" values="none;inline;none;none"/>
    </g>
    <g display="none">
      <g>
        <g id="Layer102_0_FILL">
          <path fill="#FFF" fill-opacity=".058823529411764705" stroke="none" d="M135.55 32.05L142.85 12 55.7 12 44.15 43.75 34.9 43.75 20.4 83.55 29.65 83.55 17.6 116.75 104.7 116.75 112.4 95.6 142.4 95.6 149.05 77.35 123.6 77.35 133.65 49.85 151.45 49.85 157.9 32.05 135.55 32.05M134 18.15L128.95 32.05 90.25 32.05 83.75 49.85 103.7 49.85 93.7 77.35 69.8 77.35 63.2 95.6 105.85 95.6 100.4 110.6 26.35 110.6 38.45 77.4 29.2 77.4 39.2 49.9 48.45 49.9 60 18.15 134 18.15M205.6 32.05L166.25 32.05 159.75 49.85 199.1 49.85 205.6 32.05M199.1 49.85L182.45 95.5 217.8 95.5 234.4 49.85 199.1 49.85M288.1 32.05L248.9 32.05 242.4 49.85 281.7 49.85 288.1 32.05M298.75 55.65L294.45 67.5 310.2 67.5 314.5 55.65 298.75 55.65M274.1 70.6L265 95.6 300.2 95.6 309.35 70.6 274.1 70.6M274.1 70.6L280.6 52.85 241.3 52.85 234.85 70.6 274.1 70.6M363.8 49.85L347.2 95.5 382.5 95.5 399.15 49.85 363.8 49.85M324.5 49.85L363.8 49.85 370.3 32.05 330.95 32.05 324.5 49.85M329.75 67.5L334.05 55.65 318.35 55.65 314.05 67.5 329.75 67.5M415.9 32.05L409.45 49.85 446.65 49.85 453.05 32.05 415.9 32.05M460.85 32.05L456.55 43.9 472.25 43.9 476.6 32.05 460.85 32.05M491.85 43.9L496.15 32.05 480.45 32.05 476.1 43.9 491.85 43.9Z"/>
        </g>
      </g>
      <animate attributeName="display" fill="freeze" repeatCount="1" dur="4s" keyTimes="0;.6666666666666666;.675;1" values="none;inline;none;none"/>
    </g>
    <g display="none">
      <g>
        <g id="Layer101_0_FILL">
          <path fill="#FFF" fill-opacity=".0392156862745098" stroke="none" d="M135.55 32.05L142.85 12 55.7 12 44.15 43.75 34.9 43.75 20.4 83.55 29.65 83.55 17.6 116.75 104.7 116.75 112.4 95.6 142.4 95.6 149.05 77.35 123.6 77.35 133.65 49.85 151.45 49.85 157.9 32.05 135.55 32.05M134 18.15L128.95 32.05 90.25 32.05 83.75 49.85 103.7 49.85 93.7 77.35 69.8 77.35 63.2 95.6 105.85 95.6 100.4 110.6 26.35 110.6 38.45 77.4 29.2 77.4 39.2 49.9 48.45 49.9 60 18.15 134 18.15M205.6 32.05L166.25 32.05 159.75 49.85 199.1 49.85 205.6 32.05M199.1 49.85L182.45 95.5 217.8 95.5 234.4 49.85 199.1 49.85M288.1 32.05L248.9 32.05 242.4 49.85 281.7 49.85 288.1 32.05M298.75 55.65L294.45 67.5 310.2 67.5 314.5 55.65 298.75 55.65M274.1 70.6L265 95.6 300.2 95.6 309.35 70.6 274.1 70.6M274.1 70.6L280.6 52.85 241.3 52.85 234.85 70.6 274.1 70.6M363.8 49.85L347.2 95.5 382.5 95.5 399.15 49.85 363.8 49.85M324.5 49.85L363.8 49.85 370.3 32.05 330.95 32.05 324.5 49.85M329.75 67.5L334.05 55.65 318.35 55.65 314.05 67.5 329.75 67.5M415.9 32.05L409.45 49.85 446.65 49.85 453.05 32.05 415.9 32.05M460.85 32.05L456.55 43.9 472.25 43.9 476.6 32.05 460.85 32.05M491.85 43.9L496.15 32.05 480.45 32.05 476.1 43.9 491.85 43.9Z"/>
        </g>
      </g>
      <animate attributeName="display" fill="freeze" repeatCount="1" dur="4s" keyTimes="0;.6583333333333333;.6666666666666666;1" values="none;inline;none;none"/>
    </g>
    <g display="none">
      <g>
        <g id="Layer100_0_FILL">
          <path fill="#FFF" fill-opacity=".023529411764705882" stroke="none" d="M135.55 32.05L142.85 12 55.7 12 44.15 43.75 34.9 43.75 20.4 83.55 29.65 83.55 17.6 116.75 104.7 116.75 112.4 95.6 142.4 95.6 149.05 77.35 123.6 77.35 133.65 49.85 151.45 49.85 157.9 32.05 135.55 32.05M134 18.15L128.95 32.05 90.25 32.05 83.75 49.85 103.7 49.85 93.7 77.35 69.8 77.35 63.2 95.6 105.85 95.6 100.4 110.6 26.35 110.6 38.45 77.4 29.2 77.4 39.2 49.9 48.45 49.9 60 18.15 134 18.15M205.6 32.05L166.25 32.05 159.75 49.85 199.1 49.85 205.6 32.05M199.1 49.85L182.45 95.5 217.8 95.5 234.4 49.85 199.1 49.85M288.1 32.05L248.9 32.05 242.4 49.85 281.7 49.85 288.1 32.05M298.75 55.65L294.45 67.5 310.2 67.5 314.5 55.65 298.75 55.65M274.1 70.6L265 95.6 300.2 95.6 309.35 70.6 274.1 70.6M274.1 70.6L280.6 52.85 241.3 52.85 234.85 70.6 274.1 70.6M363.8 49.85L347.2 95.5 382.5 95.5 399.15 49.85 363.8 49.85M324.5 49.85L363.8 49.85 370.3 32.05 330.95 32.05 324.5 49.85M329.75 67.5L334.05 55.65 318.35 55.65 314.05 67.5 329.75 67.5M415.9 32.05L409.45 49.85 446.65 49.85 453.05 32.05 415.9 32.05M460.85 32.05L456.55 43.9 472.25 43.9 476.6 32.05 460.85 32.05M491.85 43.9L496.15 32.05 480.45 32.05 476.1 43.9 491.85 43.9Z"/>
        </g>
      </g>
      <animate attributeName="display" fill="freeze" repeatCount="1" dur="4s" keyTimes="0;.6499999999999999;.6583333333333333;1" values="none;inline;none;none"/>
    </g>
    <g display="none">
      <g>
        <g id="Layer99_0_FILL">
          <path fill="#FFF" fill-opacity=".011764705882352941" stroke="none" d="M135.55 32.05L142.85 12 55.7 12 44.15 43.75 34.9 43.75 20.4 83.55 29.65 83.55 17.6 116.75 104.7 116.75 112.4 95.6 142.4 95.6 149.05 77.35 123.6 77.35 133.65 49.85 151.45 49.85 157.9 32.05 135.55 32.05M134 18.15L128.95 32.05 90.25 32.05 83.75 49.85 103.7 49.85 93.7 77.35 69.8 77.35 63.2 95.6 105.85 95.6 100.4 110.6 26.35 110.6 38.45 77.4 29.2 77.4 39.2 49.9 48.45 49.9 60 18.15 134 18.15M205.6 32.05L166.25 32.05 159.75 49.85 199.1 49.85 205.6 32.05M199.1 49.85L182.45 95.5 217.8 95.5 234.4 49.85 199.1 49.85M288.1 32.05L248.9 32.05 242.4 49.85 281.7 49.85 288.1 32.05M298.75 55.65L294.45 67.5 310.2 67.5 314.5 55.65 298.75 55.65M274.1 70.6L265 95.6 300.2 95.6 309.35 70.6 274.1 70.6M274.1 70.6L280.6 52.85 241.3 52.85 234.85 70.6 274.1 70.6M363.8 49.85L347.2 95.5 382.5 95.5 399.15 49.85 363.8 49.85M324.5 49.85L363.8 49.85 370.3 32.05 330.95 32.05 324.5 49.85M329.75 67.5L334.05 55.65 318.35 55.65 314.05 67.5 329.75 67.5M415.9 32.05L409.45 49.85 446.65 49.85 453.05 32.05 415.9 32.05M460.85 32.05L456.55 43.9 472.25 43.9 476.6 32.05 460.85 32.05M491.85 43.9L496.15 32.05 480.45 32.05 476.1 43.9 491.85 43.9Z"/>
        </g>
      </g>
      <animate attributeName="display" fill="freeze" repeatCount="1" dur="4s" keyTimes="0;.6416666666666667;.6499999999999999;1" values="none;inline;none;none"/>
    </g>
    <g display="none">
      <g>
        <g id="Layer98_0_FILL">
          <path fill="#FFF" fill-opacity=".00784313725490196" stroke="none" d="M135.55 32.05L142.85 12 55.7 12 44.15 43.75 34.9 43.75 20.4 83.55 29.65 83.55 17.6 116.75 104.7 116.75 112.4 95.6 142.4 95.6 149.05 77.35 123.6 77.35 133.65 49.85 151.45 49.85 157.9 32.05 135.55 32.05M134 18.15L128.95 32.05 90.25 32.05 83.75 49.85 103.7 49.85 93.7 77.35 69.8 77.35 63.2 95.6 105.85 95.6 100.4 110.6 26.35 110.6 38.45 77.4 29.2 77.4 39.2 49.9 48.45 49.9 60 18.15 134 18.15M205.6 32.05L166.25 32.05 159.75 49.85 199.1 49.85 205.6 32.05M199.1 49.85L182.45 95.5 217.8 95.5 234.4 49.85 199.1 49.85M288.1 32.05L248.9 32.05 242.4 49.85 281.7 49.85 288.1 32.05M298.75 55.65L294.45 67.5 310.2 67.5 314.5 55.65 298.75 55.65M274.1 70.6L265 95.6 300.2 95.6 309.35 70.6 274.1 70.6M274.1 70.6L280.6 52.85 241.3 52.85 234.85 70.6 274.1 70.6M363.8 49.85L347.2 95.5 382.5 95.5 399.15 49.85 363.8 49.85M324.5 49.85L363.8 49.85 370.3 32.05 330.95 32.05 324.5 49.85M329.75 67.5L334.05 55.65 318.35 55.65 314.05 67.5 329.75 67.5M415.9 32.05L409.45 49.85 446.65 49.85 453.05 32.05 415.9 32.05M460.85 32.05L456.55 43.9 472.25 43.9 476.6 32.05 460.85 32.05M491.85 43.9L496.15 32.05 480.45 32.05 476.1 43.9 491.85 43.9Z"/>
        </g>
      </g>
      <animate attributeName="display" fill="freeze" repeatCount="1" dur="4s" keyTimes="0;.6333333333333333;.6416666666666667;1" values="none;inline;none;none"/>
    </g>
    <g display="none">
      <g>
        <g id="Layer97_0_FILL">
          <path fill="#FFF" fill-opacity=".00392156862745098" stroke="none" d="M157.9 32.05L135.55 32.05 142.85 12 55.7 12 44.15 43.75 34.9 43.75 20.4 83.55 29.65 83.55 17.6 116.75 104.7 116.75 112.4 95.6 142.4 95.6 149.05 77.35 123.6 77.35 133.65 49.85 151.45 49.85 157.9 32.05M134 18.15L128.95 32.05 90.25 32.05 83.75 49.85 103.7 49.85 93.7 77.35 69.8 77.35 63.2 95.6 105.85 95.6 100.4 110.6 26.35 110.6 38.45 77.4 29.2 77.4 39.2 49.9 48.45 49.9 48.5 49.85 60 18.15 134 18.15M199.1 49.85L205.6 32.05 166.25 32.05 159.75 49.85 199.1 49.85M199.1 49.85L182.45 95.5 217.8 95.5 234.4 49.85 199.1 49.85M288.1 32.05L248.9 32.05 242.4 49.85 281.7 49.85 288.1 32.05M298.75 55.65L294.45 67.5 310.2 67.5 314.5 55.65 298.75 55.65M274.1 70.6L265 95.6 300.2 95.6 309.35 70.6 274.1 70.6M274.1 70.6L280.6 52.85 241.3 52.85 234.85 70.6 274.1 70.6M363.8 49.85L347.2 95.5 382.5 95.5 399.15 49.85 363.8 49.85M324.5 49.85L363.8 49.85 370.3 32.05 330.95 32.05 324.5 49.85M329.75 67.5L334.05 55.65 318.35 55.65 314.05 67.5 329.75 67.5M446.65 49.85L453.05 32.05 415.9 32.05 409.45 49.85 446.65 49.85M476.6 32.05L460.85 32.05 456.55 43.9 472.25 43.9 476.6 32.05M491.85 43.9L496.15 32.05 480.45 32.05 476.1 43.9 491.85 43.9Z"/>
        </g>
      </g>
      <animate attributeName="display" fill="freeze" repeatCount="1" dur="4s" keyTimes="0;.625;.6333333333333333;1" values="none;inline;none;none"/>
    </g>
    <g display="none">
      <g>
        <g id="Layer96_0_FILL">
          <path fill="#FFF" stroke="none" d="M420.25 95.6L437.8 82.65 444.35 95.6 477.05 95.6 458.1 66.55 476.75 52.75 477.8 49.85 446.6 49.85 446.15 50.95 387.95 95.6 420.25 95.6Z"/>
        </g>
      </g>
      <animate attributeName="display" fill="freeze" repeatCount="1" dur="4s" keyTimes="0;.8;1" values="none;inline;inline"/>
    </g>
    <g display="none">
      <g>
        <g id="Layer95_0_FILL">
          <path fill="#FFF" fill-opacity=".9058823529411765" stroke="none" d="M437.8 82.65L444.35 95.6 477.05 95.6 458.1 66.55 476.75 52.75 477.8 49.85 446.6 49.85 446.15 50.95 387.95 95.6 420.25 95.6 437.8 82.65Z"/>
        </g>
      </g>
      <animate attributeName="display" fill="freeze" repeatCount="1" dur="4s" keyTimes="0;.7916666666666666;.8;1" values="none;inline;none;none"/>
    </g>
    <g display="none">
      <g>
        <g id="Layer94_0_FILL">
          <path fill="#FFF" fill-opacity=".8196078431372549" stroke="none" d="M437.8 82.65L444.35 95.6 477.05 95.6 458.1 66.55 476.75 52.75 477.8 49.85 446.6 49.85 446.15 50.95 387.95 95.6 420.25 95.6 437.8 82.65Z"/>
        </g>
      </g>
      <animate attributeName="display" fill="freeze" repeatCount="1" dur="4s" keyTimes="0;.7833333333333334;.7916666666666666;1" values="none;inline;none;none"/>
    </g>
    <g display="none">
      <g>
        <g id="Layer93_0_FILL">
          <path fill="#FFF" fill-opacity=".7372549019607844" stroke="none" d="M437.8 82.65L444.35 95.6 477.05 95.6 458.1 66.55 476.75 52.75 477.8 49.85 446.6 49.85 446.15 50.95 387.95 95.6 420.25 95.6 437.8 82.65Z"/>
        </g>
      </g>
      <animate attributeName="display" fill="freeze" repeatCount="1" dur="4s" keyTimes="0;.775;.7833333333333334;1" values="none;inline;none;none"/>
    </g>
    <g display="none">
      <g>
        <g id="Layer92_0_FILL">
          <path fill="#FFF" fill-opacity=".6549019607843137" stroke="none" d="M437.8 82.65L444.35 95.6 477.05 95.6 458.1 66.55 476.75 52.75 477.8 49.85 446.6 49.85 446.15 50.95 387.95 95.6 420.25 95.6 437.8 82.65Z"/>
        </g>
      </g>
      <animate attributeName="display" fill="freeze" repeatCount="1" dur="4s" keyTimes="0;.7666666666666667;.775;1" values="none;inline;none;none"/>
    </g>
    <g display="none">
      <g>
        <g id="Layer91_0_FILL">
          <path fill="#FFF" fill-opacity=".5803921568627451" stroke="none" d="M437.8 82.65L444.35 95.6 477.05 95.6 458.1 66.55 476.75 52.75 477.8 49.85 446.6 49.85 446.15 50.95 387.95 95.6 420.25 95.6 437.8 82.65Z"/>
        </g>
      </g>
      <animate attributeName="display" fill="freeze" repeatCount="1" dur="4s" keyTimes="0;.7583333333333333;.7666666666666667;1" values="none;inline;none;none"/>
    </g>
    <g display="none">
      <g>
        <g id="Layer90_0_FILL">
          <path fill="#FFF" fill-opacity=".5137254901960784" stroke="none" d="M437.8 82.65L444.35 95.6 477.05 95.6 458.1 66.55 476.75 52.75 477.8 49.85 446.6 49.85 446.15 50.95 387.95 95.6 420.25 95.6 437.8 82.65Z"/>
        </g>
      </g>
      <animate attributeName="display" fill="freeze" repeatCount="1" dur="4s" keyTimes="0;.7500000000000001;.7583333333333333;1" values="none;inline;none;none"/>
    </g>
    <g display="none">
      <g>
        <g id="Layer89_0_FILL">
          <path fill="#FFF" fill-opacity=".4470588235294118" stroke="none" d="M437.8 82.65L444.35 95.6 477.05 95.6 458.1 66.55 476.75 52.75 477.8 49.85 446.6 49.85 446.15 50.95 387.95 95.6 420.25 95.6 437.8 82.65Z"/>
        </g>
      </g>
      <animate attributeName="display" fill="freeze" repeatCount="1" dur="4s" keyTimes="0;.7416666666666667;.7500000000000001;1" values="none;inline;none;none"/>
    </g>
    <g display="none">
      <g>
        <g id="Layer88_0_FILL">
          <path fill="#FFF" fill-opacity=".3843137254901961" stroke="none" d="M437.8 82.65L444.35 95.6 477.05 95.6 458.1 66.55 476.75 52.75 477.8 49.85 446.6 49.85 446.15 50.95 387.95 95.6 420.25 95.6 437.8 82.65Z"/>
        </g>
      </g>
      <animate attributeName="display" fill="freeze" repeatCount="1" dur="4s" keyTimes="0;.7333333333333333;.7416666666666667;1" values="none;inline;none;none"/>
    </g>
    <g display="none">
      <g>
        <g id="Layer87_0_FILL">
          <path fill="#FFF" fill-opacity=".32941176470588235" stroke="none" d="M437.8 82.65L444.35 95.6 477.05 95.6 458.1 66.55 476.75 52.75 477.8 49.85 446.6 49.85 446.15 50.95 387.95 95.6 420.25 95.6 437.8 82.65Z"/>
        </g>
      </g>
      <animate attributeName="display" fill="freeze" repeatCount="1" dur="4s" keyTimes="0;.725;.7333333333333333;1" values="none;inline;none;none"/>
    </g>
    <g display="none">
      <g>
        <g id="Layer86_0_FILL">
          <path fill="#FFF" fill-opacity=".2784313725490196" stroke="none" d="M437.8 82.65L444.35 95.6 477.05 95.6 458.1 66.55 476.75 52.75 477.8 49.85 446.6 49.85 446.15 50.95 387.95 95.6 420.25 95.6 437.8 82.65Z"/>
        </g>
      </g>
      <animate attributeName="display" fill="freeze" repeatCount="1" dur="4s" keyTimes="0;.7166666666666666;.725;1" values="none;inline;none;none"/>
    </g>
    <g display="none">
      <g>
        <g id="Layer85_0_FILL">
          <path fill="#FFF" fill-opacity=".23137254901960785" stroke="none" d="M437.8 82.65L444.35 95.6 477.05 95.6 458.1 66.55 476.75 52.75 477.8 49.85 446.6 49.85 446.15 50.95 387.95 95.6 420.25 95.6 437.8 82.65Z"/>
        </g>
      </g>
      <animate attributeName="display" fill="freeze" repeatCount="1" dur="4s" keyTimes="0;.7083333333333334;.7166666666666666;1" values="none;inline;none;none"/>
    </g>
    <g display="none">
      <g>
        <g id="Layer84_0_FILL">
          <path fill="#FFF" fill-opacity=".18823529411764706" stroke="none" d="M437.8 82.65L444.35 95.6 477.05 95.6 458.1 66.55 476.75 52.75 477.8 49.85 446.6 49.85 446.15 50.95 387.95 95.6 420.25 95.6 437.8 82.65Z"/>
        </g>
      </g>
      <animate attributeName="display" fill="freeze" repeatCount="1" dur="4s" keyTimes="0;.7;.7083333333333334;1" values="none;inline;none;none"/>
    </g>
    <g display="none">
      <g>
        <g id="Layer83_0_FILL">
          <path fill="#FFF" fill-opacity=".14901960784313725" stroke="none" d="M437.8 82.65L444.35 95.6 477.05 95.6 458.1 66.55 476.75 52.75 477.8 49.85 446.6 49.85 446.15 50.95 387.95 95.6 420.25 95.6 437.8 82.65Z"/>
        </g>
      </g>
      <animate attributeName="display" fill="freeze" repeatCount="1" dur="4s" keyTimes="0;.6916666666666667;.7;1" values="none;inline;none;none"/>
    </g>
    <g display="none">
      <g>
        <g id="Layer82_0_FILL">
          <path fill="#FFF" fill-opacity=".11372549019607843" stroke="none" d="M437.8 82.65L444.35 95.6 477.05 95.6 458.1 66.55 476.75 52.75 477.8 49.85 446.6 49.85 446.15 50.95 387.95 95.6 420.25 95.6 437.8 82.65Z"/>
        </g>
      </g>
      <animate attributeName="display" fill="freeze" repeatCount="1" dur="4s" keyTimes="0;.6833333333333332;.6916666666666667;1" values="none;inline;none;none"/>
    </g>
    <g display="none">
      <g>
        <g id="Layer81_0_FILL">
          <path fill="#FFF" fill-opacity=".08627450980392157" stroke="none" d="M437.8 82.65L444.35 95.6 477.05 95.6 458.1 66.55 476.75 52.75 477.8 49.85 446.6 49.85 446.15 50.95 387.95 95.6 420.25 95.6 437.8 82.65Z"/>
        </g>
      </g>
      <animate attributeName="display" fill="freeze" repeatCount="1" dur="4s" keyTimes="0;.675;.6833333333333332;1" values="none;inline;none;none"/>
    </g>
    <g display="none">
      <g>
        <g id="Layer80_0_FILL">
          <path fill="#FFF" fill-opacity=".058823529411764705" stroke="none" d="M437.8 82.65L444.35 95.6 477.05 95.6 458.1 66.55 476.75 52.75 477.8 49.85 446.6 49.85 446.15 50.95 387.95 95.6 420.25 95.6 437.8 82.65Z"/>
        </g>
      </g>
      <animate attributeName="display" fill="freeze" repeatCount="1" dur="4s" keyTimes="0;.6666666666666666;.675;1" values="none;inline;none;none"/>
    </g>
    <g display="none">
      <g>
        <g id="Layer79_0_FILL">
          <path fill="#FFF" fill-opacity=".0392156862745098" stroke="none" d="M437.8 82.65L444.35 95.6 477.05 95.6 458.1 66.55 476.75 52.75 477.8 49.85 446.6 49.85 446.15 50.95 387.95 95.6 420.25 95.6 437.8 82.65Z"/>
        </g>
      </g>
      <animate attributeName="display" fill="freeze" repeatCount="1" dur="4s" keyTimes="0;.6583333333333333;.6666666666666666;1" values="none;inline;none;none"/>
    </g>
    <g display="none">
      <g>
        <g id="Layer78_0_FILL">
          <path fill="#FFF" fill-opacity=".023529411764705882" stroke="none" d="M437.8 82.65L444.35 95.6 477.05 95.6 458.1 66.55 476.75 52.75 477.8 49.85 446.6 49.85 446.15 50.95 387.95 95.6 420.25 95.6 437.8 82.65Z"/>
        </g>
      </g>
      <animate attributeName="display" fill="freeze" repeatCount="1" dur="4s" keyTimes="0;.6499999999999999;.6583333333333333;1" values="none;inline;none;none"/>
    </g>
    <g display="none">
      <g>
        <g id="Layer77_0_FILL">
          <path fill="#FFF" fill-opacity=".011764705882352941" stroke="none" d="M437.8 82.65L444.35 95.6 477.05 95.6 458.1 66.55 476.75 52.75 477.8 49.85 446.6 49.85 446.15 50.95 387.95 95.6 420.25 95.6 437.8 82.65Z"/>
        </g>
      </g>
      <animate attributeName="display" fill="freeze" repeatCount="1" dur="4s" keyTimes="0;.6416666666666667;.6499999999999999;1" values="none;inline;none;none"/>
    </g>
    <g display="none">
      <g>
        <g id="Layer76_0_FILL">
          <path fill="#FFF" fill-opacity=".00784313725490196" stroke="none" d="M437.8 82.65L444.35 95.6 477.05 95.6 458.1 66.55 476.75 52.75 477.8 49.85 446.6 49.85 446.15 50.95 387.95 95.6 420.25 95.6 437.8 82.65Z"/>
        </g>
      </g>
      <animate attributeName="display" fill="freeze" repeatCount="1" dur="4s" keyTimes="0;.6333333333333333;.6416666666666667;1" values="none;inline;none;none"/>
    </g>
    <g display="none">
      <g>
        <g id="Layer75_0_FILL">
          <path fill="#FFF" fill-opacity=".00392156862745098" stroke="none" d="M420.25 95.6L437.8 82.65 444.35 95.6 477.05 95.6 458.1 66.55 476.75 52.75 477.8 49.85 446.6 49.85 446.15 50.95 387.95 95.6 420.25 95.6Z"/>
        </g>
      </g>
      <animate attributeName="display" fill="freeze" repeatCount="1" dur="4s" keyTimes="0;.625;.6333333333333333;1" values="none;inline;none;none"/>
    </g>
    <g display="none">
      <g>
        <path id="Layer74_0_1_STROKES" stroke="#FFF" stroke-width="1" stroke-linejoin="miter" stroke-linecap="butt" stroke-miterlimit="10" fill="none" d="M481 32.65L477.05 43.35 491.3 43.35 495.2 32.65 481 32.65Z"/>
      </g>
      <animate attributeName="display" fill="freeze" repeatCount="1" dur="4s" keyTimes="0;.6083333333333333;1" values="none;inline;inline"/>
    </g>
    <g display="none">
      <g>
        <path id="Layer73_0_1_STROKES" stroke="#FFF" stroke-width="1" stroke-linejoin="miter" stroke-linecap="butt" stroke-miterlimit="10" fill="none" d="M477.05 43.35L491.3 43.35 495.2 32.65 481 32.65"/>
      </g>
      <animate attributeName="display" fill="freeze" repeatCount="1" dur="4s" keyTimes="0;.6;.6083333333333333;1" values="none;inline;none;none"/>
    </g>
    <g display="none">
      <g>
        <path id="Layer72_0_1_STROKES" stroke="#FFF" stroke-width="1" stroke-linejoin="miter" stroke-linecap="butt" stroke-miterlimit="10" fill="none" d="M491.3 43.35L495.2 32.65 481 32.65"/>
      </g>
      <animate attributeName="display" fill="freeze" repeatCount="1" dur="4s" keyTimes="0;.5916666666666667;.6;1" values="none;inline;none;none"/>
    </g>
    <g display="none">
      <g>
        <path id="Layer71_0_1_STROKES" stroke="#FFF" stroke-width="1" stroke-linejoin="miter" stroke-linecap="butt" stroke-miterlimit="10" fill="none" d="M495.2 32.65L481 32.65"/>
      </g>
      <animate attributeName="display" fill="freeze" repeatCount="1" dur="4s" keyTimes="0;.5833333333333334;.5916666666666667;1" values="none;inline;none;none"/>
    </g>
    <g display="none">
      <g>
        <path id="Layer70_0_1_STROKES" stroke="#FFF" stroke-width="1" stroke-linejoin="miter" stroke-linecap="butt" stroke-miterlimit="10" fill="none" d="M475.6 32.55L461.3 32.55 457.35 43.4 471.7 43.4 475.6 32.55Z"/>
      </g>
      <animate attributeName="display" fill="freeze" repeatCount="1" dur="4s" keyTimes="0;.575;1" values="none;inline;inline"/>
    </g>
    <g display="none">
      <g>
        <path id="Layer69_0_1_STROKES" stroke="#FFF" stroke-width="1" stroke-linejoin="miter" stroke-linecap="butt" stroke-miterlimit="10" fill="none" d="M457.35 43.4L471.7 43.4 475.6 32.55 461.3 32.55"/>
      </g>
      <animate attributeName="display" fill="freeze" repeatCount="1" dur="4s" keyTimes="0;.5666666666666667;.575;1" values="none;inline;none;none"/>
    </g>
    <g display="none">
      <g>
        <path id="Layer68_0_1_STROKES" stroke="#FFF" stroke-width="1" stroke-linejoin="miter" stroke-linecap="butt" stroke-miterlimit="10" fill="none" d="M471.7 43.4L475.6 32.55 461.3 32.55"/>
      </g>
      <animate attributeName="display" fill="freeze" repeatCount="1" dur="4s" keyTimes="0;.5583333333333333;.5666666666666667;1" values="none;inline;none;none"/>
    </g>
    <g display="none">
      <g>
        <path id="Layer67_0_1_STROKES" stroke="#FFF" stroke-width="1" stroke-linejoin="miter" stroke-linecap="butt" stroke-miterlimit="10" fill="none" d="M475.6 32.55L461.3 32.55"/>
      </g>
      <animate attributeName="display" fill="freeze" repeatCount="1" dur="4s" keyTimes="0;.55;.5583333333333333;1" values="none;inline;none;none"/>
    </g>
    <g display="none">
      <g>
        <path id="Layer65_0_1_STROKES" stroke="#FFF" stroke-width="1" stroke-linejoin="miter" stroke-linecap="butt" stroke-miterlimit="10" fill="none" d="M477 50.55L446.75 50.45 446.25 51.45 389.75 94.95 419.75 94.95 437.75 81.7 443.65 95.2 476.25 95.2 457.65 66.85 475.9 53.25 477 50.55Z"/>
      </g>
      <animate attributeName="display" fill="freeze" repeatCount="1" dur="4s" keyTimes="0;.5416666666666666;1" values="none;inline;inline"/>
    </g>
    <g display="none">
      <g>
        <path id="Layer64_0_1_STROKES" stroke="#FFF" stroke-width="1" stroke-linejoin="miter" stroke-linecap="butt" stroke-miterlimit="10" fill="none" d="M420.3 71.45L389.75 94.95 419.75 94.95 437.75 81.7 443.65 95.2 476.25 95.2 457.65 66.85 475.9 53.25 477 50.55 446.75 50.45"/>
      </g>
      <animate attributeName="display" fill="freeze" repeatCount="1" dur="4s" keyTimes="0;.5333333333333333;.5416666666666666;1" values="none;inline;none;none"/>
    </g>
    <g display="none">
      <g>
        <path id="Layer63_0_1_STROKES" stroke="#FFF" stroke-width="1" stroke-linejoin="miter" stroke-linecap="butt" stroke-miterlimit="10" fill="none" d="M389.75 94.95L419.75 94.95 437.75 81.7 443.65 95.2 476.25 95.2 457.65 66.85 475.9 53.25 477 50.55 446.75 50.45"/>
      </g>
      <animate attributeName="display" fill="freeze" repeatCount="1" dur="4s" keyTimes="0;.525;.5333333333333333;1" values="none;inline;none;none"/>
    </g>
    <g display="none">
      <g>
        <path id="Layer62_0_1_STROKES" stroke="#FFF" stroke-width="1" stroke-linejoin="miter" stroke-linecap="butt" stroke-miterlimit="10" fill="none" d="M437.75 81.7L443.65 95.2 476.25 95.2 457.65 66.85 475.9 53.25 477 50.55 446.75 50.45"/>
      </g>
      <animate attributeName="display" fill="freeze" repeatCount="1" dur="4s" keyTimes="0;.5166666666666667;.525;1" values="none;inline;none;none"/>
    </g>
    <g display="none">
      <g>
        <path id="Layer61_0_1_STROKES" stroke="#FFF" stroke-width="1" stroke-linejoin="miter" stroke-linecap="butt" stroke-miterlimit="10" fill="none" d="M476.25 95.2L457.65 66.85 475.9 53.25 477 50.55 446.75 50.45"/>
      </g>
      <animate attributeName="display" fill="freeze" repeatCount="1" dur="4s" keyTimes="0;.5083333333333333;.5166666666666667;1" values="none;inline;none;none"/>
    </g>
    <g display="none">
      <g>
        <path id="Layer60_0_1_STROKES" stroke="#FFF" stroke-width="1" stroke-linejoin="miter" stroke-linecap="butt" stroke-miterlimit="10" fill="none" d="M477 50.6L446.75 50.5"/>
      </g>
      <animate attributeName="display" fill="freeze" repeatCount="1" dur="4s" keyTimes="0;.5;.5083333333333333;1" values="none;inline;none;none"/>
    </g>
    <g display="none">
      <g>
        <path id="Layer59_0_1_STROKES" stroke="#FFF" stroke-width="1" stroke-linejoin="miter" stroke-linecap="butt" stroke-miterlimit="10" fill="none" d="M416.3 32.45L410.1 49.55 446.5 49.55 452.1 32.45 416.3 32.45Z"/>
      </g>
      <animate attributeName="display" fill="freeze" repeatCount="1" dur="4s" keyTimes="0;.4916666666666667;1" values="none;inline;inline"/>
    </g>
    <g display="none">
      <g>
        <path id="Layer58_0_1_STROKES" stroke="#FFF" stroke-width="1" stroke-linejoin="miter" stroke-linecap="butt" stroke-miterlimit="10" fill="none" d="M410.1 49.55L446.5 49.55 452.1 32.45 416.3 32.45"/>
      </g>
      <animate attributeName="display" fill="freeze" repeatCount="1" dur="4s" keyTimes="0;.48333333333333334;.4916666666666667;1" values="none;inline;none;none"/>
    </g>
    <g display="none">
      <g>
        <path id="Layer57_0_1_STROKES" stroke="#FFF" stroke-width="1" stroke-linejoin="miter" stroke-linecap="butt" stroke-miterlimit="10" fill="none" d="M446.5 49.55L452.1 32.45 416.3 32.45"/>
      </g>
      <animate attributeName="display" fill="freeze" repeatCount="1" dur="4s" keyTimes="0;.47500000000000003;.48333333333333334;1" values="none;inline;none;none"/>
    </g>
    <g display="none">
      <g>
        <path id="Layer56_0_1_STROKES" stroke="#FFF" stroke-width="1" stroke-linejoin="miter" stroke-linecap="butt" stroke-miterlimit="10" fill="none" d="M452.1 32.4L416.3 32.4"/>
      </g>
      <animate attributeName="display" fill="freeze" repeatCount="1" dur="4s" keyTimes="0;.4666666666666667;.47500000000000003;1" values="none;inline;none;none"/>
    </g>
    <g display="none">
      <g>
        <path id="Layer55_0_1_STROKES" stroke="#FFF" stroke-width="1" stroke-linejoin="miter" stroke-linecap="butt" stroke-miterlimit="10" fill="none" d="M363.95 50.45L347.7 95.1 382.25 95.1 398.45 50.45 363.95 50.45Z"/>
      </g>
      <animate attributeName="display" fill="freeze" repeatCount="1" dur="4s" keyTimes="0;.45833333333333337;1" values="none;inline;inline"/>
    </g>
    <g display="none">
      <g>
        <path id="Layer54_0_1_STROKES" stroke="#FFF" stroke-width="1" stroke-linejoin="miter" stroke-linecap="butt" stroke-miterlimit="10" fill="none" d="M347.7 95.1L382.25 95.1 398.45 50.45 363.95 50.45"/>
      </g>
      <animate attributeName="display" fill="freeze" repeatCount="1" dur="4s" keyTimes="0;.45;.45833333333333337;1" values="none;inline;none;none"/>
    </g>
    <g display="none">
      <g>
        <path id="Layer53_0_1_STROKES" stroke="#FFF" stroke-width="1" stroke-linejoin="miter" stroke-linecap="butt" stroke-miterlimit="10" fill="none" d="M382.25 95.1L398.45 50.45 363.95 50.45"/>
      </g>
      <animate attributeName="display" fill="freeze" repeatCount="1" dur="4s" keyTimes="0;.4416666666666667;.45;1" values="none;inline;none;none"/>
    </g>
    <g display="none">
      <g>
        <path id="Layer52_0_1_STROKES" stroke="#FFF" stroke-width="1" stroke-linejoin="miter" stroke-linecap="butt" stroke-miterlimit="10" fill="none" d="M398.45 50.5L363.95 50.5"/>
      </g>
      <animate attributeName="display" fill="freeze" repeatCount="1" dur="4s" keyTimes="0;.43333333333333335;.4416666666666667;1" values="none;inline;none;none"/>
    </g>
    <g display="none">
      <g>
        <path id="Layer51_0_1_STROKES" stroke="#FFF" stroke-width="1" stroke-linejoin="miter" stroke-linecap="butt" stroke-miterlimit="10" fill="none" d="M331.35 32.45L324.95 49.6 363.7 49.6 370 32.45 331.35 32.45Z"/>
      </g>
      <animate attributeName="display" fill="freeze" repeatCount="1" dur="4s" keyTimes="0;.42500000000000004;1" values="none;inline;inline"/>
    </g>
    <g display="none">
      <g>
        <path id="Layer50_0_1_STROKES" stroke="#FFF" stroke-width="1" stroke-linejoin="miter" stroke-linecap="butt" stroke-miterlimit="10" fill="none" d="M324.95 49.6L363.7 49.6 370 32.45 331.35 32.45"/>
      </g>
      <animate attributeName="display" fill="freeze" repeatCount="1" dur="4s" keyTimes="0;.4166666666666667;.42500000000000004;1" values="none;inline;none;none"/>
    </g>
    <g display="none">
      <g>
        <path id="Layer49_0_1_STROKES" stroke="#FFF" stroke-width="1" stroke-linejoin="miter" stroke-linecap="butt" stroke-miterlimit="10" fill="none" d="M363.65 49.6L369.95 32.45 331.3 32.45"/>
      </g>
      <animate attributeName="display" fill="freeze" repeatCount="1" dur="4s" keyTimes="0;.4083333333333334;.4166666666666667;1" values="none;inline;none;none"/>
    </g>
    <g display="none">
      <g>
        <path id="Layer48_0_1_STROKES" stroke="#FFF" stroke-width="1" stroke-linejoin="miter" stroke-linecap="butt" stroke-miterlimit="10" fill="none" d="M369.95 32.4L331.3 32.4"/>
      </g>
      <animate attributeName="display" fill="freeze" repeatCount="1" dur="4s" keyTimes="0;.4;.4083333333333334;1" values="none;inline;none;none"/>
    </g>
    <g display="none">
      <g>
        <path id="Layer47_0_1_STROKES" stroke="#FFF" stroke-width="1" stroke-linejoin="miter" stroke-linecap="butt" stroke-miterlimit="10" fill="none" d="M314.7 67.25L329.7 67.25 333.75 56.3 318.85 56.3 314.7 67.25Z"/>
      </g>
      <animate attributeName="display" fill="freeze" repeatCount="1" dur="4s" keyTimes="0;.3916666666666667;1" values="none;inline;inline"/>
    </g>
    <g display="none">
      <g>
        <path id="Layer46_0_1_STROKES" stroke="#FFF" stroke-width="1" stroke-linejoin="miter" stroke-linecap="butt" stroke-miterlimit="10" fill="none" d="M314.7 67.25L329.7 67.25 333.75 56.3 318.85 56.3"/>
      </g>
      <animate attributeName="display" fill="freeze" repeatCount="1" dur="4s" keyTimes="0;.38333333333333336;.3916666666666667;1" values="none;inline;none;none"/>
    </g>
    <g display="none">
      <g>
        <path id="Layer45_0_1_STROKES" stroke="#FFF" stroke-width="1" stroke-linejoin="miter" stroke-linecap="butt" stroke-miterlimit="10" fill="none" d="M329.7 67.25L333.75 56.3 318.85 56.3"/>
      </g>
      <animate attributeName="display" fill="freeze" repeatCount="1" dur="4s" keyTimes="0;.37500000000000006;.38333333333333336;1" values="none;inline;none;none"/>
    </g>
    <g display="none">
      <g>
        <path id="Layer44_0_1_STROKES" stroke="#FFF" stroke-width="1" stroke-linejoin="miter" stroke-linecap="butt" stroke-miterlimit="10" fill="none" d="M333.75 56.25L318.85 56.25"/>
      </g>
      <animate attributeName="display" fill="freeze" repeatCount="1" dur="4s" keyTimes="0;.36666666666666664;.37500000000000006;1" values="none;inline;none;none"/>
    </g>
    <g display="none">
      <g>
        <path id="Layer43_0_1_STROKES" stroke="#FFF" stroke-width="1" stroke-linejoin="miter" stroke-linecap="butt" stroke-miterlimit="10" fill="none" d="M299.05 56.05L294.95 67.3 310 67.3 314.15 56.05 299.05 56.05Z"/>
      </g>
      <animate attributeName="display" fill="freeze" repeatCount="1" dur="4s" keyTimes="0;.3583333333333333;1" values="none;inline;inline"/>
    </g>
    <g display="none">
      <g>
        <path id="Layer42_0_1_STROKES" stroke="#FFF" stroke-width="1" stroke-linejoin="miter" stroke-linecap="butt" stroke-miterlimit="10" fill="none" d="M294.95 67.3L310 67.3 314.15 56.05 299.05 56.05"/>
      </g>
      <animate attributeName="display" fill="freeze" repeatCount="1" dur="4s" keyTimes="0;.35;.3583333333333333;1" values="none;inline;none;none"/>
    </g>
    <g display="none">
      <g>
        <path id="Layer41_0_1_STROKES" stroke="#FFF" stroke-width="1" stroke-linejoin="miter" stroke-linecap="butt" stroke-miterlimit="10" fill="none" d="M310 67.3L314.15 56.05 299.05 56.05"/>
      </g>
      <animate attributeName="display" fill="freeze" repeatCount="1" dur="4s" keyTimes="0;.3416666666666666;.35;1" values="none;inline;none;none"/>
    </g>
    <g display="none">
      <g>
        <path id="Layer40_0_1_STROKES" stroke="#FFF" stroke-width="1" stroke-linejoin="miter" stroke-linecap="butt" stroke-miterlimit="10" fill="none" d="M314.15 56L299.05 56"/>
      </g>
      <animate attributeName="display" fill="freeze" repeatCount="1" dur="4s" keyTimes="0;.3333333333333333;.3416666666666666;1" values="none;inline;none;none"/>
    </g>
    <g display="none">
      <g>
        <path id="Layer39_0_1_STROKES" stroke="#FFF" stroke-width="1" stroke-linejoin="miter" stroke-linecap="butt" stroke-miterlimit="10" fill="none" d="M264.85 95.2L266.6 95.2 299.85 95.2 309.25 70.95 274.5 70.95 266.6 90.8 264.85 95.2Z"/>
      </g>
      <animate attributeName="display" fill="freeze" repeatCount="1" dur="4s" keyTimes="0;.32499999999999996;1" values="none;inline;inline"/>
    </g>
    <g display="none">
      <g>
        <path id="Layer38_0_1_STROKES" stroke="#FFF" stroke-width="1" stroke-linejoin="miter" stroke-linecap="butt" stroke-miterlimit="10" fill="none" d="M264.85 95.2L266.6 95.2 299.85 95.2 309.25 70.95 274.5 70.95"/>
      </g>
      <animate attributeName="display" fill="freeze" repeatCount="1" dur="4s" keyTimes="0;.31666666666666665;.32499999999999996;1" values="none;inline;none;none"/>
    </g>
    <g display="none">
      <g>
        <path id="Layer37_0_1_STROKES" stroke="#FFF" stroke-width="1" stroke-linejoin="miter" stroke-linecap="butt" stroke-miterlimit="10" fill="none" d="M299.85 95.2L309.25 70.95 274.5 70.95"/>
      </g>
      <animate attributeName="display" fill="freeze" repeatCount="1" dur="4s" keyTimes="0;.30833333333333335;.31666666666666665;1" values="none;inline;none;none"/>
    </g>
    <g display="none">
      <g>
        <path id="Layer36_0_1_STROKES" stroke="#FFF" stroke-width="1" stroke-linejoin="miter" stroke-linecap="butt" stroke-miterlimit="10" fill="none" d="M309.25 71L274.5 71"/>
      </g>
      <animate attributeName="display" fill="freeze" repeatCount="1" dur="4s" keyTimes="0;.3;.30833333333333335;1" values="none;inline;none;none"/>
    </g>
    <g display="none">
      <g>
        <path id="Layer35_0_1_STROKES" stroke="#FFF" stroke-width="1" stroke-linejoin="miter" stroke-linecap="butt" stroke-miterlimit="10" fill="none" d="M241.75 53.3L235.5 70.05 266.6 70.05 273.75 70.05 274.4 68.25 279.75 53.3 241.75 53.3Z"/>
      </g>
      <animate attributeName="display" fill="freeze" repeatCount="1" dur="4s" keyTimes="0;.2916666666666667;1" values="none;inline;inline"/>
    </g>
    <g display="none">
      <g>
        <path id="Layer34_0_1_STROKES" stroke="#FFF" stroke-width="1" stroke-linejoin="miter" stroke-linecap="butt" stroke-miterlimit="10" fill="none" d="M235.5 70.05L266.6 70.05 273.75 70.05 274.4 68.25 279.75 53.3 241.75 53.3"/>
      </g>
      <animate attributeName="display" fill="freeze" repeatCount="1" dur="4s" keyTimes="0;.2833333333333333;.2916666666666667;1" values="none;inline;none;none"/>
    </g>
    <g display="none">
      <g>
        <path id="Layer33_0_1_STROKES" stroke="#FFF" stroke-width="1" stroke-linejoin="miter" stroke-linecap="butt" stroke-miterlimit="10" fill="none" d="M273.75 70.05L274.4 68.25 279.75 53.3 241.75 53.3"/>
      </g>
      <animate attributeName="display" fill="freeze" repeatCount="1" dur="4s" keyTimes="0;.275;.2833333333333333;1" values="none;inline;none;none"/>
    </g>
    <g display="none">
      <g>
        <path id="Layer32_0_1_STROKES" stroke="#FFF" stroke-width="1" stroke-linejoin="miter" stroke-linecap="butt" stroke-miterlimit="10" fill="none" d="M279.75 53.25L241.75 53.25"/>
      </g>
      <animate attributeName="display" fill="freeze" repeatCount="1" dur="4s" keyTimes="0;.26666666666666666;.275;1" values="none;inline;none;none"/>
    </g>
    <g display="none">
      <g>
        <path id="Layer31_0_1_STROKES" stroke="#FFF" stroke-width="1" stroke-linejoin="miter" stroke-linecap="butt" stroke-miterlimit="10" fill="none" d="M287.65 32.6L249.4 32.6 243.1 49.25 281.35 49.25 287.65 32.6Z"/>
      </g>
      <animate attributeName="display" fill="freeze" repeatCount="1" dur="4s" keyTimes="0;.25833333333333336;1" values="none;inline;inline"/>
    </g>
    <g display="none">
      <g>
        <path id="Layer30_0_1_STROKES" stroke="#FFF" stroke-width="1" stroke-linejoin="miter" stroke-linecap="butt" stroke-miterlimit="10" fill="none" d="M243.1 49.25L281.35 49.25 287.65 32.6 249.4 32.6"/>
      </g>
      <animate attributeName="display" fill="freeze" repeatCount="1" dur="4s" keyTimes="0;.25;.25833333333333336;1" values="none;inline;none;none"/>
    </g>
    <g display="none">
      <g>
        <path id="Layer29_0_1_STROKES" stroke="#FFF" stroke-width="1" stroke-linejoin="miter" stroke-linecap="butt" stroke-miterlimit="10" fill="none" d="M281.35 49.25L287.65 32.6 249.4 32.6"/>
      </g>
      <animate attributeName="display" fill="freeze" repeatCount="1" dur="4s" keyTimes="0;.24166666666666667;.25;1" values="none;inline;none;none"/>
    </g>
    <g display="none">
      <g>
        <path id="Layer28_0_1_STROKES" stroke="#FFF" stroke-width="1" stroke-linejoin="miter" stroke-linecap="butt" stroke-miterlimit="10" fill="none" d="M287.65 32.6L249.4 32.6"/>
      </g>
      <animate attributeName="display" fill="freeze" repeatCount="1" dur="4s" keyTimes="0;.23333333333333334;.24166666666666667;1" values="none;inline;none;none"/>
    </g>
    <g display="none">
      <g>
        <path id="Layer27_0_1_STROKES" stroke="#FFF" stroke-width="1" stroke-linejoin="miter" stroke-linecap="butt" stroke-miterlimit="10" fill="none" d="M182.75 95.25L217.6 95.25 234 50.25 199.15 50.25 182.75 95.25Z"/>
      </g>
      <animate attributeName="display" fill="freeze" repeatCount="1" dur="4s" keyTimes="0;.225;1" values="none;inline;inline"/>
    </g>
    <g display="none">
      <g>
        <path id="Layer26_0_1_STROKES" stroke="#FFF" stroke-width="1" stroke-linejoin="miter" stroke-linecap="butt" stroke-miterlimit="10" fill="none" d="M182.75 95.25L217.6 95.25 234 50.25 199.15 50.25"/>
      </g>
      <animate attributeName="display" fill="freeze" repeatCount="1" dur="4s" keyTimes="0;.21666666666666667;.225;1" values="none;inline;none;none"/>
    </g>
    <g display="none">
      <g>
        <path id="Layer25_0_1_STROKES" stroke="#FFF" stroke-width="1" stroke-linejoin="miter" stroke-linecap="butt" stroke-miterlimit="10" fill="none" d="M217.55 95.25L233.95 50.25 199.1 50.25"/>
      </g>
      <animate attributeName="display" fill="freeze" repeatCount="1" dur="4s" keyTimes="0;.20833333333333334;.21666666666666667;1" values="none;inline;none;none"/>
    </g>
    <g display="none">
      <g>
        <path id="Layer24_0_1_STROKES" stroke="#FFF" stroke-width="1" stroke-linejoin="miter" stroke-linecap="butt" stroke-miterlimit="10" fill="none" d="M233.95 50.3L199.1 50.3"/>
      </g>
      <animate attributeName="display" fill="freeze" repeatCount="1" dur="4s" keyTimes="0;.2;.20833333333333334;1" values="none;inline;none;none"/>
    </g>
    <g display="none">
      <g>
        <path id="Layer23_0_1_STROKES" stroke="#FFF" stroke-width="1" stroke-linejoin="miter" stroke-linecap="butt" stroke-miterlimit="10" fill="none" d="M166.45 32.4L160.05 49.45 198.65 49.45 204.95 32.4 166.45 32.4Z"/>
      </g>
      <animate attributeName="display" fill="freeze" repeatCount="1" dur="4s" keyTimes="0;.19166666666666668;1" values="none;inline;inline"/>
    </g>
    <g display="none">
      <g>
        <path id="Layer22_0_1_STROKES" stroke="#FFF" stroke-width="1" stroke-linejoin="miter" stroke-linecap="butt" stroke-miterlimit="10" fill="none" d="M160.05 49.45L198.65 49.45 204.95 32.4 166.45 32.4"/>
      </g>
      <animate attributeName="display" fill="freeze" repeatCount="1" dur="4s" keyTimes="0;.18333333333333332;.19166666666666668;1" values="none;inline;none;none"/>
    </g>
    <g display="none">
      <g>
        <path id="Layer21_0_1_STROKES" stroke="#FFF" stroke-width="1" stroke-linejoin="miter" stroke-linecap="butt" stroke-miterlimit="10" fill="none" d="M198.65 49.45L204.95 32.4 166.45 32.4"/>
      </g>
      <animate attributeName="display" fill="freeze" repeatCount="1" dur="4s" keyTimes="0;.175;.18333333333333332;1" values="none;inline;none;none"/>
    </g>
    <g display="none">
      <g>
        <path id="Layer20_0_1_STROKES" stroke="#FFF" stroke-width="1" stroke-linejoin="miter" stroke-linecap="butt" stroke-miterlimit="10" fill="none" d="M204.95 32.4L166.45 32.4"/>
      </g>
      <animate attributeName="display" fill="freeze" repeatCount="1" dur="4s" keyTimes="0;.16666666666666666;.175;1" values="none;inline;none;none"/>
    </g>
    <g display="none">
      <g>
        <path id="Layer19_0_1_STROKES" stroke="#FFF" stroke-width="1" stroke-linejoin="miter" stroke-linecap="butt" stroke-miterlimit="10" fill="none" d="M70 78L63.75 95 106.75 95 100.75 111.25 25.75 111.25 37.5 78 29.3 78.05 39.25 49.25 48.5 49.5 59.25 17.5 134.25 17.5 128.5 32.05 90.1 32.05 84 49.5 104.25 49.5Q94 78.1 94 78"/>
        <path id="Layer19_0_2_STROKES" stroke="#FFF" stroke-width="1" stroke-linejoin="miter" stroke-linecap="round" stroke-miterlimit="10" fill="none" d="M94 78Q94 78.1 70 78"/>
      </g>
      <animate attributeName="display" fill="freeze" repeatCount="1" dur="4s" keyTimes="0;.15833333333333333;1" values="none;inline;inline"/>
    </g>
    <g display="none">
      <g>
        <path id="Layer18_0_1_STROKES" stroke="#FFF" stroke-width="1" stroke-linejoin="miter" stroke-linecap="butt" stroke-miterlimit="10" fill="none" d="M59.25 17.5L134.25 17.5 128.5 32.05 90.1 32.05 84 49.5 104.25 49.5Q94 78.1 94 78M70 78L63.75 95 106.75 95 100.75 111.25 25.75 111.25 37.5 78 29.3 78.05 39.25 49.25"/>
        <path id="Layer18_0_2_STROKES" stroke="#FFF" stroke-width="1" stroke-linejoin="miter" stroke-linecap="round" stroke-miterlimit="10" fill="none" d="M94 78Q94 78.1 70 78"/>
      </g>
      <animate attributeName="display" fill="freeze" repeatCount="1" dur="4s" keyTimes="0;.15;.15833333333333333;1" values="none;inline;none;none"/>
    </g>
    <g display="none">
      <g>
        <path id="Layer17_0_1_STROKES" stroke="#FFF" stroke-width="1" stroke-linejoin="miter" stroke-linecap="butt" stroke-miterlimit="10" fill="none" d="M59.25 17.5L134.25 17.5 128.5 32.05 90.1 32.05 84 49.5 104.25 49.5Q94 78.1 94 78M70 78L63.75 95 106.75 95 100.75 111.25 25.75 111.25 37.5 78"/>
        <path id="Layer17_0_2_STROKES" stroke="#FFF" stroke-width="1" stroke-linejoin="miter" stroke-linecap="round" stroke-miterlimit="10" fill="none" d="M94 78Q94 78.1 70 78"/>
      </g>
      <animate attributeName="display" fill="freeze" repeatCount="1" dur="4s" keyTimes="0;.14166666666666666;.15;1" values="none;inline;none;none"/>
    </g>
    <g display="none">
      <g>
        <path id="Layer16_0_1_STROKES" stroke="#FFF" stroke-width="1" stroke-linejoin="miter" stroke-linecap="butt" stroke-miterlimit="10" fill="none" d="M59.25 17.5L134.25 17.5 128.5 32.05 90.1 32.05 84 49.5 104.25 49.5Q94 78.1 94 78M70 78L63.75 95 106.75 95 100.75 111.25"/>
        <path id="Layer16_0_2_STROKES" stroke="#FFF" stroke-width="1" stroke-linejoin="miter" stroke-linecap="round" stroke-miterlimit="10" fill="none" d="M94 78Q94 78.1 70 78"/>
      </g>
      <animate attributeName="display" fill="freeze" repeatCount="1" dur="4s" keyTimes="0;.13333333333333333;.14166666666666666;1" values="none;inline;none;none"/>
    </g>
    <g display="none">
      <g>
        <path id="Layer15_0_1_STROKES" stroke="#FFF" stroke-width="1" stroke-linejoin="miter" stroke-linecap="butt" stroke-miterlimit="10" fill="none" d="M59.25 17.5L134.25 17.5 128.5 32.05 90.1 32.05 84 49.5 104.25 49.5Q94 78.1 94 78M70 78L63.75 95"/>
        <path id="Layer15_0_2_STROKES" stroke="#FFF" stroke-width="1" stroke-linejoin="miter" stroke-linecap="round" stroke-miterlimit="10" fill="none" d="M94 78Q94 78.1 70 78"/>
      </g>
      <animate attributeName="display" fill="freeze" repeatCount="1" dur="4s" keyTimes="0;.125;.13333333333333333;1" values="none;inline;none;none"/>
    </g>
    <g display="none">
      <g>
        <path id="Layer14_0_1_STROKES" stroke="#FFF" stroke-width="1" stroke-linejoin="miter" stroke-linecap="butt" stroke-miterlimit="10" fill="none" d="M59.25 17.5L134.25 17.5 128.5 32.05 90.1 32.05 84 49.5 104.25 49.5Q94 78.1 94 78"/>
      </g>
      <animate attributeName="display" fill="freeze" repeatCount="1" dur="4s" keyTimes="0;.11666666666666667;.125;1" values="none;inline;none;none"/>
    </g>
    <g display="none">
      <g>
        <path id="Layer13_0_1_STROKES" stroke="#FFF" stroke-width="1" stroke-linejoin="miter" stroke-linecap="butt" stroke-miterlimit="10" fill="none" d="M59.25 17.5L134.25 17.5 128.5 32.05 90.1 32.05 84 49.5"/>
      </g>
      <animate attributeName="display" fill="freeze" repeatCount="1" dur="4s" keyTimes="0;.10833333333333334;.11666666666666667;1" values="none;inline;none;none"/>
    </g>
    <g display="none">
      <g>
        <path id="Layer12_0_1_STROKES" stroke="#FFF" stroke-width="1" stroke-linejoin="miter" stroke-linecap="butt" stroke-miterlimit="10" fill="none" d="M59.25 17.5L134.25 17.5 128.5 32.05"/>
      </g>
      <animate attributeName="display" fill="freeze" repeatCount="1" dur="4s" keyTimes="0;.1;.10833333333333334;1" values="none;inline;none;none"/>
    </g>
    <g display="none">
      <g>
        <path id="Layer11_0_1_STROKES" stroke="#FFF" stroke-width="1" stroke-linejoin="miter" stroke-linecap="butt" stroke-miterlimit="10" fill="none" d="M59.25 17.5L95.5 17.5"/>
      </g>
      <animate attributeName="display" fill="freeze" repeatCount="1" dur="4s" keyTimes="0;.09166666666666666;.1;1" values="none;inline;none;none"/>
    </g>
    <g display="none">
      <g>
        <path id="Layer10_0_1_STROKES" stroke="#FFF" stroke-width="1" stroke-linejoin="miter" stroke-linecap="butt" stroke-miterlimit="10" fill="none" d="M56.05 12.2L142.3 12.2 135.15 32.05 157.35 32.05 150.9 49.65 133.3 49.65 122.75 78 148.25 78 141.95 94.95 112.25 94.95 104.5 116 18.5 116 30.25 83 21.15 83 35.45 43.6 44.65 43.6 56.05 12.2Z"/>
      </g>
      <animate attributeName="display" fill="freeze" repeatCount="1" dur="4s" keyTimes="0;.08333333333333333;1" values="none;inline;inline"/>
    </g>
    <g display="none">
      <g>
        <path id="Layer9_0_1_STROKES" stroke="#FFF" stroke-width="1" stroke-linejoin="miter" stroke-linecap="butt" stroke-miterlimit="10" fill="none" d="M56.05 12.2L142.3 12.2 135.15 32.05 157.35 32.05 150.9 49.65 133.3 49.65 122.75 78 148.25 78 141.95 94.95 112.25 94.95 104.5 116 18.5 116 30.25 83 21.15 83 35.45 43.6"/>
      </g>
      <animate attributeName="display" fill="freeze" repeatCount="1" dur="4s" keyTimes="0;.075;.08333333333333333;1" values="none;inline;none;none"/>
    </g>
    <g display="none">
      <g>
        <path id="Layer8_0_1_STROKES" stroke="#FFF" stroke-width="1" stroke-linejoin="miter" stroke-linecap="butt" stroke-miterlimit="10" fill="none" d="M56.05 12.2L142.3 12.2 135.15 32.05 157.35 32.05 150.9 49.65 133.3 49.65 122.75 78 148.25 78 141.95 94.95 112.25 94.95 104.5 116 18.5 116 30.25 83"/>
      </g>
      <animate attributeName="display" fill="freeze" repeatCount="1" dur="4s" keyTimes="0;.06666666666666667;.075;1" values="none;inline;none;none"/>
    </g>
    <g display="none">
      <g>
        <path id="Layer7_0_1_STROKES" stroke="#FFF" stroke-width="1" stroke-linejoin="miter" stroke-linecap="butt" stroke-miterlimit="10" fill="none" d="M56.05 12.15L142.3 12.15 135.15 32 157.35 32 150.9 49.6 133.3 49.6 122.75 77.95 148.25 77.95 141.95 94.9 112.25 94.9 104.5 115.95"/>
      </g>
      <animate attributeName="display" fill="freeze" repeatCount="1" dur="4s" keyTimes="0;.058333333333333334;.06666666666666667;1" values="none;inline;none;none"/>
    </g>
    <g display="none">
      <g>
        <path id="Layer6_0_1_STROKES" stroke="#FFF" stroke-width="1" stroke-linejoin="miter" stroke-linecap="butt" stroke-miterlimit="10" fill="none" d="M56.05 12.15L142.3 12.15 135.15 32 157.35 32 150.9 49.6 133.3 49.6 122.75 77.95 148.25 77.95 141.95 94.9"/>
      </g>
      <animate attributeName="display" fill="freeze" repeatCount="1" dur="4s" keyTimes="0;.05;.058333333333333334;1" values="none;inline;none;none"/>
    </g>
    <g display="none">
      <g>
        <path id="Layer5_0_1_STROKES" stroke="#FFF" stroke-width="1" stroke-linejoin="miter" stroke-linecap="butt" stroke-miterlimit="10" fill="none" d="M56.05 12.2L142.3 12.2 135.15 32.05 157.35 32.05 150.9 49.65 133.3 49.65 122.75 78"/>
      </g>
      <animate attributeName="display" fill="freeze" repeatCount="1" dur="4s" keyTimes="0;.041666666666666664;.05;1" values="none;inline;none;none"/>
    </g>
    <g display="none">
      <g>
        <path id="Layer4_0_1_STROKES" stroke="#FFF" stroke-width="1" stroke-linejoin="miter" stroke-linecap="butt" stroke-miterlimit="10" fill="none" d="M56.05 12.15L142.3 12.15 135.15 32 157.35 32 150.9 49.6"/>
      </g>
      <animate attributeName="display" fill="freeze" repeatCount="1" dur="4s" keyTimes="0;.03333333333333333;.041666666666666664;1" values="none;inline;none;none"/>
    </g>
    <g display="none">
      <g>
        <path id="Layer3_0_1_STROKES" stroke="#FFF" stroke-width="1" stroke-linejoin="miter" stroke-linecap="butt" stroke-miterlimit="10" fill="none" d="M56.05 12.2L142.3 12.2 135.15 32.05"/>
      </g>
      <animate attributeName="display" fill="freeze" repeatCount="1" dur="4s" keyTimes="0;.025;.03333333333333333;1" values="none;inline;none;none"/>
    </g>
    <g display="none">
      <g>
        <path id="Layer2_0_1_STROKES" stroke="#FFF" stroke-width="1" stroke-linejoin="miter" stroke-linecap="butt" stroke-miterlimit="10" fill="none" d="M56.05 12.2L96.5 12.2"/>
      </g>
      <animate attributeName="display" fill="freeze" repeatCount="1" dur="4s" keyTimes="0;.016666666666666666;.025;1" values="none;inline;none;none"/>
    </g>
    <g display="none">
      <g>
        <path id="Layer1_0_1_STROKES" stroke="#FFF" stroke-width="1" stroke-linejoin="miter" stroke-linecap="butt" stroke-miterlimit="10" fill="none" d="M56.05 12.2L71.15 12.2"/>
      </g>
      <animate attributeName="display" fill="freeze" repeatCount="1" dur="4s" keyTimes="0;.008333333333333333;.016666666666666666;1" values="none;inline;none;none"/>
    </g>
  </g>
</svg>